<?xml version="1.0" encoding="utf-8"?>
<!-- Generator: Adobe Illustrator 18.1.1, SVG Export Plug-In . SVG Version: 6.00 Build 0)  -->
<!DOCTYPE svg PUBLIC "-//W3C//DTD SVG 1.1//EN" "http://www.w3.org/Graphics/SVG/1.1/DTD/svg11.dtd">
<svg version="1.1" xmlns="http://www.w3.org/2000/svg" xmlns:xlink="http://www.w3.org/1999/xlink" x="0px" y="0px"
	 viewBox="0 0 130 120" enable-background="new 0 0 130 120" xml:space="preserve">
<g id="Infos">
	<rect id="BG" x="-950" y="-600" fill="#D8D8D8" width="2180" height="1700"/>
</g>
<g id="Others">
</g>
<g id="Europe">
	<g id="Row_5">
	</g>
	<g id="Row_4">
	</g>
	<g id="Row_3">
	</g>
	<g id="Row_2">
	</g>
	<g id="Row_1">
		<g>
			<rect x="30" fill="#DB3A49" width="100" height="81"/>
			<rect x="30" y="81" fill="#109D59" width="100" height="39"/>
			<g>
				<rect fill="#DB3A49" width="5" height="5"/>
				<rect x="5" fill="#FFFFFF" width="5" height="5"/>
				<rect x="10" fill="#DB3A49" width="5" height="5"/>
				<rect x="15" fill="#FFFFFF" width="5" height="5"/>
				<rect x="20" fill="#DB3A49" width="5" height="5"/>
				<rect x="25" fill="#FFFFFF" width="5" height="5"/>
				<rect x="25" y="5" fill="#DB3A49" width="5" height="5"/>
				<rect y="5" fill="#FFFFFF" width="5" height="5"/>
				<rect x="5" y="5" fill="#DB3A49" width="5" height="5"/>
				<rect x="10" y="5" fill="#FFFFFF" width="5" height="5"/>
				<rect x="15" y="5" fill="#DB3A49" width="5" height="5"/>
				<rect x="20" y="5" fill="#FFFFFF" width="5" height="5"/>
				<rect y="10" fill="#DB3A49" width="5" height="5"/>
				<rect x="5" y="10" fill="#FFFFFF" width="5" height="5"/>
				<rect x="10" y="10" fill="#DB3A49" width="5" height="5"/>
				<rect x="15" y="10" fill="#FFFFFF" width="5" height="5"/>
				<rect x="20" y="10" fill="#DB3A49" width="5" height="5"/>
				<rect x="25" y="10" fill="#FFFFFF" width="5" height="5"/>
				<rect x="25" y="15" fill="#DB3A49" width="5" height="5"/>
				<rect y="15" fill="#FFFFFF" width="5" height="5"/>
				<rect x="5" y="15" fill="#DB3A49" width="5" height="5"/>
				<rect x="10" y="15" fill="#FFFFFF" width="5" height="5"/>
				<rect x="15" y="15" fill="#DB3A49" width="5" height="5"/>
				<rect x="20" y="15" fill="#FFFFFF" width="5" height="5"/>
				<rect y="20" fill="#DB3A49" width="5" height="5"/>
				<rect x="5" y="20" fill="#FFFFFF" width="5" height="5"/>
				<rect x="10" y="20" fill="#DB3A49" width="5" height="5"/>
				<rect x="15" y="20" fill="#FFFFFF" width="5" height="5"/>
				<rect x="20" y="20" fill="#DB3A49" width="5" height="5"/>
				<rect x="25" y="20" fill="#FFFFFF" width="5" height="5"/>
				<rect x="25" y="25" fill="#DB3A49" width="5" height="5"/>
				<rect y="25" fill="#FFFFFF" width="5" height="5"/>
				<rect x="5" y="25" fill="#DB3A49" width="5" height="5"/>
				<rect x="10" y="25" fill="#FFFFFF" width="5" height="5"/>
				<rect x="15" y="25" fill="#DB3A49" width="5" height="5"/>
				<rect x="20" y="25" fill="#FFFFFF" width="5" height="5"/>
				<rect y="30" fill="#DB3A49" width="5" height="5"/>
				<rect x="5" y="30" fill="#FFFFFF" width="5" height="5"/>
				<rect x="10" y="30" fill="#DB3A49" width="5" height="5"/>
				<rect x="15" y="30" fill="#FFFFFF" width="5" height="5"/>
				<rect x="20" y="30" fill="#DB3A49" width="5" height="5"/>
				<rect x="25" y="30" fill="#FFFFFF" width="5" height="5"/>
				<rect x="25" y="35" fill="#DB3A49" width="5" height="5"/>
				<rect y="35" fill="#FFFFFF" width="5" height="5"/>
				<rect x="5" y="35" fill="#DB3A49" width="5" height="5"/>
				<rect x="10" y="35" fill="#FFFFFF" width="5" height="5"/>
				<rect x="15" y="35" fill="#DB3A49" width="5" height="5"/>
				<rect x="20" y="35" fill="#FFFFFF" width="5" height="5"/>
				<rect y="40" fill="#DB3A49" width="5" height="5"/>
				<rect x="5" y="40" fill="#FFFFFF" width="5" height="5"/>
				<rect x="10" y="40" fill="#DB3A49" width="5" height="5"/>
				<rect x="15" y="40" fill="#FFFFFF" width="5" height="5"/>
				<rect x="20" y="40" fill="#DB3A49" width="5" height="5"/>
				<rect x="25" y="40" fill="#FFFFFF" width="5" height="5"/>
				<rect x="25" y="45" fill="#DB3A49" width="5" height="5"/>
				<rect y="45" fill="#FFFFFF" width="5" height="5"/>
				<rect x="5" y="45" fill="#DB3A49" width="5" height="5"/>
				<rect x="10" y="45" fill="#FFFFFF" width="5" height="5"/>
				<rect x="15" y="45" fill="#DB3A49" width="5" height="5"/>
				<rect x="20" y="45" fill="#FFFFFF" width="5" height="5"/>
				<rect y="50" fill="#DB3A49" width="5" height="5"/>
				<rect x="5" y="50" fill="#FFFFFF" width="5" height="5"/>
				<rect x="10" y="50" fill="#DB3A49" width="5" height="5"/>
				<rect x="15" y="50" fill="#FFFFFF" width="5" height="5"/>
				<rect x="20" y="50" fill="#DB3A49" width="5" height="5"/>
				<rect x="25" y="50" fill="#FFFFFF" width="5" height="5"/>
				<rect x="25" y="55" fill="#DB3A49" width="5" height="5"/>
				<rect y="55" fill="#FFFFFF" width="5" height="5"/>
				<rect x="5" y="55" fill="#DB3A49" width="5" height="5"/>
				<rect x="10" y="55" fill="#FFFFFF" width="5" height="5"/>
				<rect x="15" y="55" fill="#DB3A49" width="5" height="5"/>
				<rect x="20" y="55" fill="#FFFFFF" width="5" height="5"/>
				<rect y="60" fill="#DB3A49" width="5" height="5"/>
				<rect x="5" y="60" fill="#FFFFFF" width="5" height="5"/>
				<rect x="10" y="60" fill="#DB3A49" width="5" height="5"/>
				<rect x="15" y="60" fill="#FFFFFF" width="5" height="5"/>
				<rect x="20" y="60" fill="#DB3A49" width="5" height="5"/>
				<rect x="25" y="60" fill="#FFFFFF" width="5" height="5"/>
				<rect x="25" y="65" fill="#DB3A49" width="5" height="5"/>
				<rect y="65" fill="#FFFFFF" width="5" height="5"/>
				<rect x="5" y="65" fill="#DB3A49" width="5" height="5"/>
				<rect x="10" y="65" fill="#FFFFFF" width="5" height="5"/>
				<rect x="15" y="65" fill="#DB3A49" width="5" height="5"/>
				<rect x="20" y="65" fill="#FFFFFF" width="5" height="5"/>
				<rect y="70" fill="#DB3A49" width="5" height="5"/>
				<rect x="5" y="70" fill="#FFFFFF" width="5" height="5"/>
				<rect x="10" y="70" fill="#DB3A49" width="5" height="5"/>
				<rect x="15" y="70" fill="#FFFFFF" width="5" height="5"/>
				<rect x="20" y="70" fill="#DB3A49" width="5" height="5"/>
				<rect x="25" y="70" fill="#FFFFFF" width="5" height="5"/>
				<rect x="25" y="75" fill="#DB3A49" width="5" height="5"/>
				<rect y="75" fill="#FFFFFF" width="5" height="5"/>
				<rect x="5" y="75" fill="#DB3A49" width="5" height="5"/>
				<rect x="10" y="75" fill="#FFFFFF" width="5" height="5"/>
				<rect x="15" y="75" fill="#DB3A49" width="5" height="5"/>
				<rect x="20" y="75" fill="#FFFFFF" width="5" height="5"/>
				<rect y="80" fill="#DB3A49" width="5" height="5"/>
				<rect x="5" y="80" fill="#FFFFFF" width="5" height="5"/>
				<rect x="10" y="80" fill="#DB3A49" width="5" height="5"/>
				<rect x="15" y="80" fill="#FFFFFF" width="5" height="5"/>
				<rect x="20" y="80" fill="#DB3A49" width="5" height="5"/>
				<rect x="25" y="80" fill="#FFFFFF" width="5" height="5"/>
				<rect x="25" y="85" fill="#DB3A49" width="5" height="5"/>
				<rect y="85" fill="#FFFFFF" width="5" height="5"/>
				<rect x="5" y="85" fill="#DB3A49" width="5" height="5"/>
				<rect x="10" y="85" fill="#FFFFFF" width="5" height="5"/>
				<rect x="15" y="85" fill="#DB3A49" width="5" height="5"/>
				<rect x="20" y="85" fill="#FFFFFF" width="5" height="5"/>
				<rect y="90" fill="#DB3A49" width="5" height="5"/>
				<rect x="5" y="90" fill="#FFFFFF" width="5" height="5"/>
				<rect x="10" y="90" fill="#DB3A49" width="5" height="5"/>
				<rect x="15" y="90" fill="#FFFFFF" width="5" height="5"/>
				<rect x="20" y="90" fill="#DB3A49" width="5" height="5"/>
				<rect x="25" y="90" fill="#FFFFFF" width="5" height="5"/>
				<rect x="25" y="95" fill="#DB3A49" width="5" height="5"/>
				<rect y="95" fill="#FFFFFF" width="5" height="5"/>
				<rect x="5" y="95" fill="#DB3A49" width="5" height="5"/>
				<rect x="10" y="95" fill="#FFFFFF" width="5" height="5"/>
				<rect x="15" y="95" fill="#DB3A49" width="5" height="5"/>
				<rect x="20" y="95" fill="#FFFFFF" width="5" height="5"/>
				<rect y="100" fill="#DB3A49" width="5" height="5"/>
				<rect x="5" y="100" fill="#FFFFFF" width="5" height="5"/>
				<rect x="10" y="100" fill="#DB3A49" width="5" height="5"/>
				<rect x="15" y="100" fill="#FFFFFF" width="5" height="5"/>
				<rect x="20" y="100" fill="#DB3A49" width="5" height="5"/>
				<rect x="25" y="100" fill="#FFFFFF" width="5" height="5"/>
				<rect x="25" y="105" fill="#DB3A49" width="5" height="5"/>
				<rect y="105" fill="#FFFFFF" width="5" height="5"/>
				<rect x="5" y="105" fill="#DB3A49" width="5" height="5"/>
				<rect x="10" y="105" fill="#FFFFFF" width="5" height="5"/>
				<rect x="15" y="105" fill="#DB3A49" width="5" height="5"/>
				<rect x="20" y="105" fill="#FFFFFF" width="5" height="5"/>
				<rect y="110" fill="#DB3A49" width="5" height="5"/>
				<rect x="5" y="110" fill="#FFFFFF" width="5" height="5"/>
				<rect x="10" y="110" fill="#DB3A49" width="5" height="5"/>
				<rect x="15" y="110" fill="#FFFFFF" width="5" height="5"/>
				<rect x="20" y="110" fill="#DB3A49" width="5" height="5"/>
				<rect x="25" y="110" fill="#FFFFFF" width="5" height="5"/>
				<rect x="25" y="115" fill="#DB3A49" width="5" height="5"/>
				<rect y="115" fill="#FFFFFF" width="5" height="5"/>
				<rect x="5" y="115" fill="#DB3A49" width="5" height="5"/>
				<rect x="10" y="115" fill="#FFFFFF" width="5" height="5"/>
				<rect x="15" y="115" fill="#DB3A49" width="5" height="5"/>
				<rect x="20" y="115" fill="#FFFFFF" width="5" height="5"/>
			</g>
		</g>
	</g>
</g>
</svg>
