<?xml version="1.0" encoding="utf-8"?>
<!-- Generator: Adobe Illustrator 18.1.1, SVG Export Plug-In . SVG Version: 6.00 Build 0)  -->
<!DOCTYPE svg PUBLIC "-//W3C//DTD SVG 1.1//EN" "http://www.w3.org/Graphics/SVG/1.1/DTD/svg11.dtd">
<svg version="1.1" xmlns="http://www.w3.org/2000/svg" xmlns:xlink="http://www.w3.org/1999/xlink" x="0px" y="0px"
	 viewBox="0 0 130 120" enable-background="new 0 0 130 120" xml:space="preserve">
<g id="Infos">
	<rect id="BG" x="-1700" y="-1020" fill="#D8D8D8" width="2180" height="1700"/>
</g>
<g id="Others">
</g>
<g id="Europe">
	<g id="Row_5">
	</g>
	<g id="Row_4">
		<g>
			<rect y="0" fill="#DC4437" width="130" height="120"/>
			<g>
				<polygon fill="#FFFFFF" points="87.5,46.6 91.4,54.9 100,56.2 93.8,62.6 95.2,71.6 87.5,67.4 79.8,71.6 81.3,62.6 75,56.2 
					83.7,54.9 				"/>
				<path fill="#FFFFFF" d="M85.7,37.9c0,0-0.2,0-0.5-0.1c-0.3-0.1-0.8-0.2-1.3-0.4c-0.6-0.2-1.3-0.5-2.1-0.6
					c-0.4-0.1-0.8-0.1-1.3-0.2c-0.4-0.1-0.8-0.2-1.4-0.2c-2-0.3-4.3-0.6-6.8-0.4c-2.5,0.1-5.1,0.5-7.7,1.3c-0.3,0.1-0.6,0.2-1,0.3
					l-0.1,0l0,0c-0.1,0,0.9,0,0.4,0l-0.1,0l-0.3,0.1L63,37.8c-0.5,0.1-0.9,0.3-1.4,0.4l-0.7,0.2c-0.2,0.1-0.2,0.2-0.4,0.2
					c-0.2,0.2-0.5,0.3-0.7,0.4l-0.3,0.2l-0.2,0.1l-0.2,0.1c-0.6,0.4-1.2,0.7-1.7,1.1c-2.2,1.5-4.2,3.3-5.8,5.4l-0.6,0.8
					c-0.1,0.1-0.2,0.3-0.3,0.4c0.2-0.2-0.5,0.5,0.4-0.5l0,0l-0.1,0.1L51,47l-0.3,0.3l-1,1.4c-0.5,0.6-0.4,0.7-0.5,0.9
					c-0.1,0.2-0.1,0.4-0.2,0.5c0,0.1-0.1,0.3-0.2,0.4L48.7,51l-0.4,0.8c-0.1,0.3-0.2,0.6-0.3,0.9c-0.5,1.2-0.6,2.4-0.9,3.6
					c-0.1,0.6-0.1,1.2-0.3,1.8c0,0.3,0,0.6,0,0.9l0,0.5l0,0.2l0,0.1l0,0.1l0,0c0-0.3,0,0.8,0-0.7l0.1,1.8l0,0.9l0,0.4
					c0,0.1,0,0.2,0,0.2l0,0.1c0.1,0.2,0.1,0.3,0.1,0.5c0,0.2,0,0.3,0.1,0.6c0.3,1.2,0.4,2.4,0.9,3.6c0.1,0.3,0.2,0.6,0.3,0.9
					c0.1,0.3,0.3,0.6,0.4,0.9c0.1,0.3,0.2,0.6,0.4,0.9l0.5,0.8c0.3,0.6,0.7,1.1,1,1.6l0.1,0.2l0.1,0.1l0,0.1l0,0
					c-0.9-0.9-0.2-0.2-0.4-0.4l0.5,0.6c0.4,0.4,0.7,0.9,1.1,1.3l0.4,0.5l0.2,0.2c0.1,0.2,0.3,0.3,0.4,0.5c0,0.1,0.2,0.2,0.3,0.3
					c0.1,0.1,0.2,0.2,0.4,0.3l0.7,0.7c0.5,0.4,1,0.9,1.5,1.3c0.5,0.4,1.1,0.7,1.6,1.2c2.2,1.5,4.8,2.6,7.3,3.4
					c0.9,0.2,1.9,0.4,2.3,0.5c0.5,0.1,1,0.3,1.6,0.4c0.7,0.1,1.3,0.2,1.9,0.2c0.6,0.1,1.2,0.1,1.9,0.1c2.5,0.1,4.8-0.2,6.8-0.4
					c0.5-0.1,0.9-0.2,1.4-0.3c0.5-0.1,0.9-0.2,1.3-0.3c0.8-0.1,1.5-0.4,2-0.5c0.5-0.2,1-0.3,1.3-0.4c0.3-0.1,0.5-0.1,0.5-0.1
					l0.9-0.3l0.9,0.9l-0.6,0.6c0,0-0.4,0.4-1.3,1.2c-0.8,0.8-2.1,1.9-3.8,3.1c-1.8,1.2-4,2.5-6.8,3.6c-1.4,0.6-2.9,1-4.5,1.4
					c-1.7,0.3-3.5,0.7-5.2,0.7c-3.7,0.2-7.7-0.1-11.8-1.4c-4.1-1.2-8.1-3.3-11.7-6.4c-3.5-2.9-6.6-6.8-8.6-11.2
					c-1.1-2.2-1.8-4.6-2.4-7c-0.3-1.2-0.4-2.5-0.6-3.7c-0.1-1.2-0.1-2.4-0.2-3.6c0-0.2,0-0.1,0-0.1l0-0.1l0-0.1l0-0.2l0-0.5l0.1-0.9
					c0-0.6,0-1.2,0.1-1.9c0.2-1.2,0.3-2.5,0.6-3.7c0.6-2.4,1.3-4.8,2.4-7l0.8-1.6c0.3-0.5,0.6-1,0.9-1.6c0.3-0.5,0.6-1,1-1.5
					l1.1-1.5c0.7-1,1.5-1.8,2.3-2.6l0.6-0.7l0.7-0.6c0.4-0.4,0.9-0.8,1.3-1.2c3.5-3,7.6-5.1,11.7-6.4c1-0.3,2-0.5,3-0.8
					c1-0.2,2.1-0.3,3.1-0.5l0.8-0.1l0.7,0c0.5,0,0.9,0,1.4-0.1l0.7,0l0.3,0l0.1,0l0.1,0l0,0l0.2,0c0.5,0,0.9,0.1,1.4,0.1
					c1.8,0,3.6,0.4,5.2,0.7c1.6,0.5,3.2,0.8,4.5,1.4c2.8,1,5,2.4,6.8,3.6c1.7,1.3,3.1,2.3,3.8,3.1c0.8,0.8,1.2,1.2,1.2,1.2l0.6,0.6
					l-0.8,0.9L85.7,37.9z"/>
			</g>
		</g>
	</g>
	<g id="Row_3">
	</g>
	<g id="Row_2">
	</g>
	<g id="Row_1">
	</g>
</g>
</svg>
