<?xml version="1.0" encoding="utf-8"?>
<!-- Generator: Adobe Illustrator 18.1.1, SVG Export Plug-In . SVG Version: 6.00 Build 0)  -->
<!DOCTYPE svg PUBLIC "-//W3C//DTD SVG 1.1//EN" "http://www.w3.org/Graphics/SVG/1.1/DTD/svg11.dtd">
<svg version="1.1" xmlns="http://www.w3.org/2000/svg" xmlns:xlink="http://www.w3.org/1999/xlink" x="0px" y="0px"
	 viewBox="0 0 130 120" enable-background="new 0 0 130 120" xml:space="preserve">
<g id="Infos">
	<rect id="BG" x="-800" y="-1020" fill="#D8D8D8" width="2180" height="1700"/>
</g>
<g id="Others">
</g>
<g id="Europe">
	<g id="Row_5">
	</g>
	<g id="Row_4">
		<g>
			<rect y="81" fill="#FFFFFF" width="130" height="39"/>
			<rect y="39" fill="#2A66B7" width="130" height="42"/>
			<rect fill="#DC4437" width="130" height="39"/>
			<g>
				<path fill="#DC4437" d="M21,39v15.5v18.8c0,0-1.5,20.2,25.9,20.2c27.4,0,25.9-20.2,25.9-20.2V54.5V39H21z"/>
				<path fill="#FFFFFF" d="M51.1,56.3v-3.8l6-2.6v-5.2L47,46.4l-10.6-1.7L36.4,50l6.4,2.4v3.9l-12.3-3v24.6
					c4.7,5.8,16.5,7.5,16.5,7.5s12.2-1.7,16.5-7.5V53.3L51.1,56.3z"/>
				<polyline fill="#FCBE1F" points="63,39 63,30.4 52,30.4 52,23 41,23 41,30.4 30,30.4 30,39 				"/>
			</g>
		</g>
	</g>
	<g id="Row_3">
	</g>
	<g id="Row_2">
	</g>
	<g id="Row_1">
	</g>
</g>
</svg>
