<?xml version="1.0" encoding="utf-8"?>
<!-- Generator: Adobe Illustrator 18.1.1, SVG Export Plug-In . SVG Version: 6.00 Build 0)  -->
<!DOCTYPE svg PUBLIC "-//W3C//DTD SVG 1.1//EN" "http://www.w3.org/Graphics/SVG/1.1/DTD/svg11.dtd">
<svg version="1.1" xmlns="http://www.w3.org/2000/svg" xmlns:xlink="http://www.w3.org/1999/xlink" x="0px" y="0px"
	 viewBox="0 0 130 120" enable-background="new 0 0 130 120" xml:space="preserve">
<g id="Infos">
	<rect id="BG" x="-500" y="-1350" fill="#D8D8D8" width="2180" height="1700"/>
</g>
<g id="Others">
	<g>
		<polygon fill="#2A66B7" points="0,0 0,12.1 0,27.3 0,51.7 0,66.6 0,120 130,120 130,0 		"/>
		<polygon fill="#FFFFFF" points="42.6,88.5 44.9,93.4 50.1,94.2 46.4,98.1 47.2,103.5 42.6,100.9 38,103.5 38.9,98.1 35.1,94.2 
			40.3,93.4 		"/>
		<polygon fill="#FFFFFF" points="104.5,88.5 106.8,93.4 112,94.2 108.2,98.1 109.1,103.5 104.5,100.9 99.9,103.5 100.8,98.1 
			97,94.2 102.2,93.4 		"/>
		<polygon fill="#FFFFFF" points="104.5,33.3 106.8,38.3 112,39.1 108.2,42.9 109.1,48.3 104.5,45.8 99.9,48.3 100.8,42.9 97,39.1 
			102.2,38.3 		"/>
		<g>
			<polygon fill="#DC4437" points="55.8,51.7 54.8,51.7 54.8,56.9 78.4,78.8 84.9,78.8 85.2,78.8 85.2,73.2 62.2,51.7 			"/>
			<polygon fill="#DC4437" points="29.5,27.3 30.4,27.3 30.4,22.1 6.8,0.2 0.4,0.2 0,0.2 0,5.8 23.1,27.3 			"/>
			<polygon fill="#DC4437" points="22.9,51.7 0,72.9 0,78.8 6.4,78.8 30.4,56.7 30.4,51.7 29.4,51.7 			"/>
			<polygon fill="#DC4437" points="78.8,0.2 54.8,22.3 54.8,27.3 55.9,27.3 62.3,27.3 85.2,6.1 85.2,0.2 			"/>
			<polygon fill="#DC4437" points="50.3,0.2 35,0.2 35,31.9 0,31.9 0,47.1 35,47.1 35,78.8 50.3,78.8 50.3,47.1 85.2,47.1 
				85.2,31.9 50.3,31.9 			"/>
		</g>
		<g>
			<polygon fill="#FFFFFF" points="62.3,27.3 54.8,27.3 54.8,22.3 78.8,0.2 75.4,0.2 72,0.2 54.8,16 54.8,0.2 50.3,0.2 50.3,31.9 
				85.2,31.9 85.2,27.3 69.1,27.3 85.2,12.4 85.2,9.2 85.2,6.1 			"/>
			<polygon fill="#FFFFFF" points="30.4,15.9 13.5,0.2 10.1,0.2 6.8,0.2 30.4,22.1 30.4,27.3 23.1,27.3 0,5.8 0,8.9 0,12.1 
				16.3,27.3 0,27.3 0,31.9 35,31.9 35,0.2 30.4,0.2 			"/>
			<polygon fill="#FFFFFF" points="50.3,47.1 50.3,78.8 54.8,78.8 54.8,63.1 71.7,78.8 75.1,78.8 78.4,78.8 54.8,56.9 54.8,51.7 
				62.2,51.7 85.2,73.2 85.2,70.1 85.2,66.9 68.9,51.7 85.2,51.7 85.2,47.1 60.6,47.1 			"/>
			<polygon fill="#FFFFFF" points="0,47.1 0,51.7 16.1,51.7 0,66.6 0,69.8 0,72.9 22.9,51.7 30.4,51.7 30.4,56.7 6.4,78.8 9.8,78.8 
				13.2,78.8 30.4,63 30.4,78.8 35,78.8 35,47.1 34.3,47.1 			"/>
		</g>
	</g>
</g>
<g id="Europe">
	<g id="Row_5">
	</g>
	<g id="Row_4">
	</g>
	<g id="Row_3">
	</g>
	<g id="Row_2">
	</g>
	<g id="Row_1">
	</g>
</g>
</svg>
