<?xml version="1.0" encoding="utf-8"?>
<!-- Generator: Adobe Illustrator 18.1.1, SVG Export Plug-In . SVG Version: 6.00 Build 0)  -->
<!DOCTYPE svg PUBLIC "-//W3C//DTD SVG 1.1//EN" "http://www.w3.org/Graphics/SVG/1.1/DTD/svg11.dtd">
<svg version="1.1" xmlns="http://www.w3.org/2000/svg" xmlns:xlink="http://www.w3.org/1999/xlink" x="0px" y="0px"
	 viewBox="0 0 130 120" enable-background="new 0 0 130 120" xml:space="preserve">
<g id="Infos">
	<rect id="BG" x="-1700" y="-600" fill="#D8D8D8" width="2180" height="1700"/>
</g>
<g id="Others">
</g>
<g id="Europe">
	<g id="Row_5">
	</g>
	<g id="Row_4">
	</g>
	<g id="Row_3">
	</g>
	<g id="Row_2">
	</g>
	<g id="Row_1">
		<g>
			<rect fill="#FFFFFF" width="130" height="120"/>
			<g>
				<path fill="#109D59" d="M101.7,79.6c-2.5,5.3-6.8,10.2-11.2,14.1c-3.5,3-7.1,5.7-11.1,7.9c-2.7,1.5-5.5,2.8-8.3,4
					c-1.2,0.5-2.4,1-3.6,1.5c-0.4,0.2-0.9,0.4-1.3,0.5c-0.2,0.1-0.7-0.3-0.9-0.3c-3.5-1.4-7-2.8-10.4-4.6
					c-5.4-2.9-10.3-6.4-14.8-10.6c-2.2-2.1-4.3-4.4-6.1-6.9c-0.8-1.1-1.6-2.3-2.4-3.5c-0.5-0.8-1.4-1.9-1.5-2.9
					c-0.1-1.3,2.1-0.2,2.5,0c1.5,0.5,3,1.1,4.4,1.6c9.9,3.5,19.7,7.4,29.4,11.2c-0.4,0-0.7,0-1.1,0c10-3.9,20-7.9,30.1-11.5
					c1.5-0.5,2.9-1,4.4-1.6c0.3-0.1,0.7-0.2,1-0.4C102.2,77.8,102,79.1,101.7,79.6z"/>
				<path fill="#E9742F" d="M62.8,69.4c-14.7,9-29.7,7.1-33.1,5.4c-3.4-1.7-9.8-12.7-9.8-12.7l90.3-49.7
					C110.2,12.4,102.9,44.6,62.8,69.4z"/>
			</g>
		</g>
	</g>
</g>
</svg>
