<?xml version="1.0" encoding="utf-8"?>
<!-- Generator: Adobe Illustrator 18.1.1, SVG Export Plug-In . SVG Version: 6.00 Build 0)  -->
<!DOCTYPE svg PUBLIC "-//W3C//DTD SVG 1.1//EN" "http://www.w3.org/Graphics/SVG/1.1/DTD/svg11.dtd">
<svg version="1.1" xmlns="http://www.w3.org/2000/svg" xmlns:xlink="http://www.w3.org/1999/xlink" x="0px" y="0px"
	 viewBox="0 0 130 120" enable-background="new 0 0 130 120" xml:space="preserve">
<g id="Infos">
	<rect id="BG" x="-350" y="-1160" fill="#D8D8D8" width="2180" height="1700"/>
</g>
<g id="Others">
</g>
<g id="Europe">
	<g id="Row_5">
		<g>
			<rect x="65" fill="#FFFFFF" width="65" height="120"/>
			<rect fill="#FCBE1F" width="65" height="120"/>
			<g>
				<g>
					<path fill="#A09682" d="M120.5,83c0,0-0.1,0-0.3,0c-0.2,0-0.5,0.1-0.8,0.1c-0.7,0-1.8,0.1-3.1,0.1c-1.3,0-2.8,0-4.5-0.1
						c-0.8-0.1-1.7-0.1-2.6-0.2c-0.5,0-0.7-0.3-0.8-0.7c-0.2-0.4-0.5-0.6-0.7-0.9c-4.3-4.3-10.1-10.1-15.8-15.8S80.3,54.2,76,49.8
						c-0.3-0.3-0.5-0.6-0.8-0.7C75,49,74.8,49,74.7,48.8c-0.1-0.1-0.1-0.4-0.1-0.6c-0.1-0.9-0.1-1.8-0.2-2.6
						c-0.1-1.7-0.1-3.2-0.1-4.5c0-1.2,0.1-2.3,0.1-3c0-0.7,0.1-1.1,0.1-1.1s0.4,0,1.1-0.1c0.7,0,1.8-0.1,3-0.1c1.3,0,2.8,0,4.5,0.1
						c0.8,0,1.7,0.1,2.6,0.2c0.2,0,0.5,0,0.6,0.1c0.1,0.1,0.2,0.3,0.3,0.5c0.2,0.4,0.5,0.6,0.7,0.8c4.3,4.3,10.1,10.1,15.8,15.8
						s11.5,11.5,15.8,15.8c0.3,0.3,0.5,0.6,0.9,0.7c0.4,0.1,0.7,0.4,0.7,0.8c0.1,0.9,0.1,1.8,0.2,2.6c0.1,1.7,0.1,3.2,0.1,4.5
						c0,1.3-0.1,2.4-0.1,3.1c0,0.4-0.1,0.6-0.1,0.8C120.5,82.9,120.5,83,120.5,83z"/>
				</g>
				<g>
					<path fill="#FCBE1F" d="M74.5,83c0,0,0-0.1,0-0.3c0-0.2-0.1-0.5-0.1-0.8c0-0.7-0.1-1.8-0.1-3.1c0-1.3,0-2.8,0.1-4.5
						c0.1-0.8,0.1-1.7,0.2-2.6c0-0.5,0.3-0.7,0.7-0.8c0.4-0.2,0.6-0.5,0.9-0.7c4.3-4.3,10.1-10.1,15.8-15.8s11.5-11.5,15.8-15.8
						c0.3-0.3,0.6-0.5,0.7-0.8c0.1-0.2,0.2-0.4,0.3-0.5c0.1-0.1,0.4-0.1,0.6-0.1c0.9-0.1,1.8-0.1,2.6-0.2c1.7-0.1,3.2-0.1,4.5-0.1
						c1.2,0,2.3,0.1,3,0.1c0.7,0,1.1,0.1,1.1,0.1s0,0.4,0.1,1.1c0,0.7,0.1,1.8,0.1,3c0,1.3,0,2.8-0.1,4.5c0,0.8-0.1,1.7-0.2,2.6
						c0,0.2,0,0.5-0.1,0.6c-0.1,0.1-0.3,0.2-0.5,0.3c-0.4,0.2-0.6,0.5-0.8,0.7c-4.3,4.3-10.1,10.1-15.8,15.8S91.7,77.2,87.3,81.5
						c-0.3,0.3-0.6,0.5-0.7,0.9c-0.1,0.4-0.4,0.7-0.8,0.7c-0.9,0.1-1.8,0.1-2.6,0.2c-1.7,0.1-3.2,0.1-4.5,0.1
						c-1.3,0-2.4-0.1-3.1-0.1c-0.4,0-0.6-0.1-0.8-0.1C74.6,83,74.5,83,74.5,83z"/>
				</g>
			</g>
		</g>
	</g>
	<g id="Row_4">
	</g>
	<g id="Row_3">
	</g>
	<g id="Row_2">
	</g>
	<g id="Row_1">
	</g>
</g>
</svg>
