<?xml version="1.0" encoding="utf-8"?>
<!-- Generator: Adobe Illustrator 18.1.1, SVG Export Plug-In . SVG Version: 6.00 Build 0)  -->
<!DOCTYPE svg PUBLIC "-//W3C//DTD SVG 1.1//EN" "http://www.w3.org/Graphics/SVG/1.1/DTD/svg11.dtd">
<svg version="1.1" xmlns="http://www.w3.org/2000/svg" xmlns:xlink="http://www.w3.org/1999/xlink" x="0px" y="0px"
	 viewBox="0 0 130 120" enable-background="new 0 0 130 120" xml:space="preserve">
<g id="Infos">
	<rect id="BG" x="-1550" y="-600" fill="#D8D8D8" width="2180" height="1700"/>
</g>
<g id="Others">
</g>
<g id="Europe">
	<g id="Row_5">
	</g>
	<g id="Row_4">
	</g>
	<g id="Row_3">
	</g>
	<g id="Row_2">
	</g>
	<g id="Row_1">
		<g>
			<g>
				<rect fill="#DC4437" width="130" height="39"/>
				<rect y="39" fill="#FFFFFF" width="130" height="42"/>
				<rect y="81" fill="#2A66B7" width="130" height="39"/>
			</g>
			<g>
				<defs>
					<path id="SVGID_7_" d="M95,81c0,0-4.2,18-30,18S35,81,35,81V60V39h30h30v21V81z"/>
				</defs>
				<use xlink:href="#SVGID_7_"  overflow="visible" fill="#FFFFFF"/>
				<clipPath id="SVGID_2_">
					<use xlink:href="#SVGID_7_"  overflow="visible"/>
				</clipPath>
				<rect x="35" y="39" clip-path="url(#SVGID_2_)" fill="#DC4437" width="12" height="12"/>
				<rect x="59" y="39" clip-path="url(#SVGID_2_)" fill="#DC4437" width="12" height="12"/>
				<rect x="47" y="51" clip-path="url(#SVGID_2_)" fill="#DC4437" width="12" height="12"/>
				<rect x="59" y="63" clip-path="url(#SVGID_2_)" fill="#DC4437" width="12" height="12"/>
				<rect x="35" y="63" clip-path="url(#SVGID_2_)" fill="#DC4437" width="12" height="12"/>
				<rect x="71" y="51.3" clip-path="url(#SVGID_2_)" fill="#DC4437" width="12" height="12"/>
				<rect x="83" y="63.3" clip-path="url(#SVGID_2_)" fill="#DC4437" width="12" height="12"/>
				<rect x="83" y="87.3" clip-path="url(#SVGID_2_)" fill="#DC4437" width="12" height="12"/>
				<rect x="59" y="87.3" clip-path="url(#SVGID_2_)" fill="#DC4437" width="12" height="12"/>
				<rect x="35" y="87.3" clip-path="url(#SVGID_2_)" fill="#DC4437" width="12" height="12"/>
				<rect x="83" y="39" clip-path="url(#SVGID_2_)" fill="#DC4437" width="12" height="12"/>
				<rect x="71" y="75.3" clip-path="url(#SVGID_2_)" fill="#DC4437" width="12" height="12"/>
				<rect x="47" y="75.3" clip-path="url(#SVGID_2_)" fill="#DC4437" width="12" height="12"/>
			</g>
			<rect x="35" y="24" fill="#2A66B7" width="60" height="15"/>
		</g>
	</g>
</g>
</svg>
