<?xml version="1.0" encoding="utf-8"?>
<!-- Generator: Adobe Illustrator 18.1.1, SVG Export Plug-In . SVG Version: 6.00 Build 0)  -->
<!DOCTYPE svg PUBLIC "-//W3C//DTD SVG 1.1//EN" "http://www.w3.org/Graphics/SVG/1.1/DTD/svg11.dtd">
<svg version="1.1" xmlns="http://www.w3.org/2000/svg" xmlns:xlink="http://www.w3.org/1999/xlink" x="0px" y="0px"
	 viewBox="0 0 130 120" enable-background="new 0 0 130 120" xml:space="preserve">
<g id="Infos">
	<rect id="BG" x="-800" y="-880" fill="#D8D8D8" width="2180" height="1700"/>
</g>
<g id="Others">
</g>
<g id="Europe">
	<g id="Row_5">
	</g>
	<g id="Row_4">
	</g>
	<g id="Row_3">
		<g>
			<rect fill="#DC4437" width="130" height="120"/>
			<path fill="#FCBE1F" d="M85,60c0,11-9,20-20,20c-11,0-20-9-20-20s9-20,20-20C76,40,85,49,85,60z"/>
			<g>
				<defs>
					<rect id="SVGID_5_" width="130" height="120"/>
				</defs>
				<clipPath id="SVGID_2_">
					<use xlink:href="#SVGID_5_"  overflow="visible"/>
				</clipPath>
				<g clip-path="url(#SVGID_2_)">
					<line fill="#FCBE1F" x1="65" y1="0" x2="65" y2="60"/>
					<polygon fill="#FCBE1F" points="77.5,0 65,60 52.5,0 					"/>
				</g>
				<g clip-path="url(#SVGID_2_)">
					<line fill="#FCBE1F" x1="65" y1="120" x2="65" y2="60"/>
					<polygon fill="#FCBE1F" points="52.5,120 65,60 77.5,120 					"/>
				</g>
				<g clip-path="url(#SVGID_2_)">
					<line fill="#FCBE1F" x1="130" y1="60" x2="65" y2="60"/>
					<polygon fill="#FCBE1F" points="130,72.5 65,60 130,47.5 					"/>
				</g>
				<g clip-path="url(#SVGID_2_)">
					<line fill="#FCBE1F" x1="0" y1="60" x2="65" y2="60"/>
					<polygon fill="#FCBE1F" points="0,47.5 65,60 0,72.5 					"/>
				</g>
				<g clip-path="url(#SVGID_2_)">
					<line fill="#FCBE1F" x1="130" y1="0" x2="65" y2="60"/>
					<polygon fill="#FCBE1F" points="138.5,9.2 65,60 121.5,-9.2 					"/>
				</g>
				<g clip-path="url(#SVGID_2_)">
					<line fill="#FCBE1F" x1="0" y1="120" x2="65" y2="60"/>
					<polygon fill="#FCBE1F" points="-8.5,110.8 65,60 8.5,129.2 					"/>
				</g>
				<g clip-path="url(#SVGID_2_)">
					<line fill="#FCBE1F" x1="130" y1="120" x2="65" y2="60"/>
					<polygon fill="#FCBE1F" points="121.5,129.2 65,60 138.5,110.8 					"/>
				</g>
				<g clip-path="url(#SVGID_2_)">
					<line fill="#FCBE1F" x1="0" y1="0" x2="65" y2="60"/>
					<polygon fill="#FCBE1F" points="8.5,-9.2 65,60 -8.5,9.2 					"/>
				</g>
			</g>
		</g>
	</g>
	<g id="Row_2">
	</g>
	<g id="Row_1">
	</g>
</g>
</svg>
