<?xml version="1.0" encoding="utf-8"?>
<!-- Generator: Adobe Illustrator 18.1.1, SVG Export Plug-In . SVG Version: 6.00 Build 0)  -->
<!DOCTYPE svg PUBLIC "-//W3C//DTD SVG 1.1//EN" "http://www.w3.org/Graphics/SVG/1.1/DTD/svg11.dtd">
<svg version="1.1" xmlns="http://www.w3.org/2000/svg" xmlns:xlink="http://www.w3.org/1999/xlink" x="0px" y="0px"
	 viewBox="0 0 130 120" enable-background="new 0 0 130 120" xml:space="preserve">
<g id="Infos">
	<rect id="BG" x="-650" y="-1020" fill="#D8D8D8" width="2180" height="1700"/>
</g>
<g id="Others">
</g>
<g id="Europe">
	<g id="Row_5">
	</g>
	<g id="Row_4">
		<g>
			<rect y="60" fill="#4393F5" width="130" height="60"/>
			<rect y="0" fill="#FFFFFF" width="130" height="60"/>
			<path fill="#FCBE1F" d="M88.5,53.4V47c0,0-1.6-7.7-19.2-8.7v-6.2h5.4v-8.5h-5.4V17h-8.5v6.6h-5.4v8.5h5.4v6.2
				C43.1,39.4,41.5,47,41.5,47v6.4c0,0-0.1,15.8,0.6,18.8C42.8,75.1,50.3,92,65,92c14.7,0,22.2-16.9,22.9-19.8
				C88.6,69.2,88.5,53.4,88.5,53.4z"/>
			<path fill="#4393F5" d="M62.2,46.4c-11.5,0.7-12.5,5.6-12.5,5.6v4.1c0,0-0.1,10.2,0.4,12.1c0.5,1.9,5.3,12.8,14.9,12.8
				s14.4-10.9,14.9-12.8c0.5-1.9,0.4-12.1,0.4-12.1v-4.1c0,0-1-4.9-12.5-5.6H62.2z"/>
			<path fill="#21824C" d="M84.9,31.1c9.2,4.2,14.5,13.4,16.6,23c0,1.2,0.6,3.3,0.7,4.9c0.1,2.9,0,5.8-0.5,8.7
				c-0.6,3.7-1.7,7.4-3.3,10.8c-1.2,2.5-2.5,5.3-4.5,7.3c0,0,0,0,0.1-0.1c-0.8,0.9-1.4,1.9-2.3,2.8c-2.5,2.5-5.1,4.7-8.1,6.6
				c-3.7,2.3-7.9,3.8-12.2,4.6c-2.1,0.4-4.3,0.5-6.5,0.6c0,0,0.1,0,0.1,0c-1-0.2-2.3-0.1-3.4-0.2c-2.1-0.1-4.3-0.6-6.4-1.2
				c-4.3-1.2-8.3-3.2-11.9-5.9C36,87.5,30.5,79,28.7,69.8c-0.6-3.2-0.9-6.5-0.8-9.8c0.1-2,0.7-4.6,0.7-6.3c1.3-4.8,2.9-9.3,5.8-13.5
				c2.7-3.9,6.4-7.2,10.8-9.2c0.3,0.3,0.6,0.5,0.9,0.8c0.4,0.4,0.1,0.5-0.2,0.9c-1.2,1.6-2.2,3.2-3.1,5c-2,4-3.1,8.3-3.5,12.8
				c-0.9,9.2,2.1,18,7.7,25.2c-0.1-0.1,0,0,0,0c2.6,2.8,5.5,5.3,9.1,6.8c2.9,1.2,5.9,1.7,9.1,1.9c-0.2,0,0,0,0,0
				c3.1-0.2,6-0.7,8.9-1.9c3.7-1.6,7.1-4.1,9.6-7.3c7.4-9.4,9.4-22,5.6-33.3c-1.2-3.6-3.1-6.8-5.4-9.8L84.9,31.1z"/>
		</g>
	</g>
	<g id="Row_3">
	</g>
	<g id="Row_2">
	</g>
	<g id="Row_1">
	</g>
</g>
</svg>
