<?xml version="1.0" encoding="utf-8"?>
<!-- Generator: Adobe Illustrator 18.1.1, SVG Export Plug-In . SVG Version: 6.00 Build 0)  -->
<!DOCTYPE svg PUBLIC "-//W3C//DTD SVG 1.1//EN" "http://www.w3.org/Graphics/SVG/1.1/DTD/svg11.dtd">
<svg version="1.1" xmlns="http://www.w3.org/2000/svg" xmlns:xlink="http://www.w3.org/1999/xlink" x="0px" y="0px"
	 viewBox="0 0 130 120" enable-background="new 0 0 130 120" xml:space="preserve">
<g id="Infos">
	<rect id="BG" x="-800" y="-600" fill="#D8D8D8" width="2180" height="1700"/>
</g>
<g id="Others">
</g>
<g id="Europe">
	<g id="Row_5">
	</g>
	<g id="Row_4">
	</g>
	<g id="Row_3">
	</g>
	<g id="Row_2">
	</g>
	<g id="Row_1">
		<g>
			<g>
				<rect fill="#2A66B7" width="130" height="39"/>
				<rect y="39" fill="#DB3A49" width="130" height="42"/>
				<rect y="81" fill="#109D59" width="130" height="39"/>
			</g>
			<g>
				<polygon fill="#FFFFFF" points="76.5,50.3 79.2,56.2 85.5,57.2 81,61.8 82,68.3 76.5,65.2 70.9,68.3 72,61.8 67.5,57.2 
					73.7,56.2 				"/>
				<path fill="#FFFFFF" d="M85,41.9c0,0-0.1,0-0.4-0.1c-0.2-0.1-0.6-0.2-1.1-0.3c-0.5-0.1-1.1-0.4-1.7-0.5c-0.3-0.1-0.7-0.1-1-0.2
					c-0.4-0.1-0.7-0.2-1.1-0.2c-1.6-0.2-3.5-0.5-5.6-0.3c-2,0-4.2,0.4-6.3,1.1c-0.3,0.1-0.5,0.2-0.8,0.2l-0.1,0l0,0
					c-0.1,0,0.7,0,0.4,0l-0.1,0l-0.3,0.1l-0.6,0.2c-0.4,0.1-0.7,0.2-1.1,0.3l-0.6,0.2c-0.1,0.1-0.2,0.1-0.3,0.2
					c-0.4,0.3-0.7,0.4-1.1,0.7c-0.5,0.3-0.9,0.6-1.4,0.9c-1.8,1.2-3.4,2.7-4.7,4.4l-0.5,0.7c-0.1,0.1-0.2,0.2-0.2,0.3l0,0
					c0.8-0.8,0.2-0.2,0.4-0.4l-0.1,0.1l-0.1,0.1l-0.2,0.3c-0.5,0.7-1.3,1.7-1.2,1.8c0,0.2-0.1,0.3-0.2,0.4c-0.1,0.1-0.2,0.5-0.3,0.7
					l-0.3,0.7L54.1,54c-0.6,1.9-1,3.9-1,6c0-1.3,0-0.3,0-0.6l0,0l0,0.1l0,0.2l0,0.4l0,0.7l0,0.7l0,0.4c0,0.1,0,0.1,0,0.2l0,0
					c0,0.1,0.1,0.3,0.1,0.4c0,0.1,0,0.2,0.1,0.5c0.2,1,0.3,2,0.7,2.9l0.2,0.7c0.1,0.2,0.2,0.4,0.3,0.7c0.1,0.2,0.2,0.5,0.3,0.7
					l0.4,0.7c0.2,0.5,0.5,0.9,0.8,1.3l0.1,0.2l0.1,0.1l0,0c-0.2-0.2,0.4,0.4-0.4-0.4l0,0l0.5,0.5l0.9,1c0.4,0.5,0.4,0.4,0.5,0.6
					c0.1,0.1,0.2,0.3,0.3,0.4c0.1,0.2,0.4,0.3,0.5,0.5l0.6,0.6c0.4,0.4,0.8,0.7,1.2,1.1c0.4,0.3,0.9,0.6,1.3,1
					c1.8,1.2,3.9,2.2,6,2.8c1.7,0.4,2.2,0.5,3.2,0.8c1,0.1,2.1,0.3,3.1,0.3c2.1,0.1,3.9-0.1,5.6-0.3c1.6-0.3,3-0.6,3.9-0.9
					c0.4-0.1,0.8-0.2,1.1-0.3c0.3-0.1,0.4-0.1,0.4-0.1l0.8-0.2l0.7,0.7L86,79.1c0,0-0.4,0.3-1,1c-0.7,0.7-1.7,1.5-3.1,2.6
					c-1.5,1-3.3,2.1-5.6,2.9c-1.1,0.5-2.4,0.8-3.7,1.2c-1.4,0.3-2.9,0.5-4.3,0.6c-3,0.2-6.3-0.1-9.7-1.1c-3.3-1-6.7-2.7-9.6-5.2
					c-2.8-2.4-5.4-5.6-7.1-9.2c-0.9-1.8-1.5-3.7-2-5.7c-0.3-1-0.4-2-0.5-3.1c-0.1-1-0.1-1.9-0.2-3c0-4.1,1-8.1,2.7-11.8l0.7-1.3
					c0.2-0.4,0.5-0.9,0.8-1.3c0.3-0.4,0.5-0.9,0.8-1.3l0.9-1.2c0.6-0.8,1.2-1.5,1.9-2.2l0.5-0.6l0.5-0.5l1.1-1
					c2.9-2.5,6.2-4.2,9.6-5.2c0.8-0.2,1.7-0.4,2.5-0.6c0.8-0.2,1.7-0.3,2.5-0.4c0.4-0.1,0.8-0.1,1.2-0.1c0.4,0,0.8,0,1.1,0l0.6,0
					l0.3,0l0.1,0l0.1,0l0,0l0.1,0c0.4,0,0.8,0,1.1,0.1c1.5,0,2.9,0.3,4.3,0.6c1.3,0.4,2.6,0.7,3.7,1.2c2.3,0.9,4.1,2,5.6,2.9
					c1.4,1,2.5,1.9,3.1,2.6c0.7,0.6,1,1,1,1l0.5,0.5l-0.7,0.8L85,41.9z"/>
			</g>
		</g>
	</g>
</g>
</svg>
