<?xml version="1.0" encoding="utf-8"?>
<!-- Generator: Adobe Illustrator 18.1.1, SVG Export Plug-In . SVG Version: 6.00 Build 0)  -->
<!DOCTYPE svg PUBLIC "-//W3C//DTD SVG 1.1//EN" "http://www.w3.org/Graphics/SVG/1.1/DTD/svg11.dtd">
<svg version="1.1" xmlns="http://www.w3.org/2000/svg" xmlns:xlink="http://www.w3.org/1999/xlink" x="0px" y="0px"
	 viewBox="0 0 130 120" enable-background="new 0 0 130 120" xml:space="preserve">
<g id="Infos">
	<rect id="BG" x="-500" y="-1160" fill="#D8D8D8" width="2180" height="1700"/>
</g>
<g id="Others">
</g>
<g id="Europe">
	<g id="Row_5">
		<g>
			<rect fill="#2A66B7" width="130" height="120"/>
			<polygon fill="#FCBE1F" points="65,11 67.8,16.9 74,17.9 69.5,22.5 70.6,29 65,25.9 59.4,29 60.5,22.5 56,17.9 62.2,16.9 			"/>
			<polygon fill="#FCBE1F" points="65,91 67.8,96.9 74,97.9 69.5,102.5 70.6,109 65,105.9 59.4,109 60.5,102.5 56,97.9 62.2,96.9 
							"/>
			<polygon fill="#FCBE1F" points="105,51 107.8,56.9 114,57.9 109.5,62.5 110.6,69 105,65.9 99.4,69 100.5,62.5 96,57.9 
				102.2,56.9 			"/>
			<polygon fill="#FCBE1F" points="25,51 27.8,56.9 34,57.9 29.5,62.5 30.6,69 25,65.9 19.4,69 20.5,62.5 16,57.9 22.2,56.9 			"/>
			<polygon fill="#FCBE1F" points="35.5,23 38.3,28.9 44.5,29.9 40,34.5 41.1,41 35.5,37.9 29.9,41 31,34.5 26.5,29.9 32.7,28.9 			
				"/>
			<polygon fill="#FCBE1F" points="94.5,23 97.3,28.9 103.5,29.9 99,34.5 100.1,41 94.5,37.9 88.9,41 90,34.5 85.5,29.9 91.7,28.9 
							"/>
			<polygon fill="#FCBE1F" points="35.5,77.5 38.3,83.4 44.5,84.4 40,89 41.1,95.5 35.5,92.4 29.9,95.5 31,89 26.5,84.4 32.7,83.4 
							"/>
			<polygon fill="#FCBE1F" points="94.5,77.5 97.3,83.4 103.5,84.4 99,89 100.1,95.5 94.5,92.4 88.9,95.5 90,89 85.5,84.4 
				91.7,83.4 			"/>
		</g>
	</g>
	<g id="Row_4">
	</g>
	<g id="Row_3">
	</g>
	<g id="Row_2">
	</g>
	<g id="Row_1">
	</g>
</g>
</svg>
