<?xml version="1.0" encoding="utf-8"?>
<!-- Generator: Adobe Illustrator 18.1.1, SVG Export Plug-In . SVG Version: 6.00 Build 0)  -->
<!DOCTYPE svg PUBLIC "-//W3C//DTD SVG 1.1//EN" "http://www.w3.org/Graphics/SVG/1.1/DTD/svg11.dtd">
<svg version="1.1" xmlns="http://www.w3.org/2000/svg" xmlns:xlink="http://www.w3.org/1999/xlink" x="0px" y="0px"
	 viewBox="0 0 130 120" enable-background="new 0 0 130 120" xml:space="preserve">
<g id="Infos">
	<rect id="BG" x="-350" y="-600" fill="#D8D8D8" width="2180" height="1700"/>
</g>
<g id="Others">
</g>
<g id="Europe">
	<g id="Row_5">
	</g>
	<g id="Row_4">
	</g>
	<g id="Row_3">
	</g>
	<g id="Row_2">
	</g>
	<g id="Row_1">
		<g>
			<rect x="87" fill="#DB3A49" width="43" height="120"/>
			<rect x="43" fill="#FCBE1F" width="44" height="120"/>
			<rect fill="#2A66B7" width="43" height="120"/>
			<g>
				<defs>
					<path id="SVGID_9_" d="M93.5,73.4c0,0-4.2,18-30,18s-30-18-30-18v-21v-21h30h30v21V73.4z"/>
				</defs>
				<clipPath id="SVGID_2_">
					<use xlink:href="#SVGID_9_"  overflow="visible"/>
				</clipPath>
				<rect x="63.5" y="61.4" clip-path="url(#SVGID_2_)" fill="#FCBE1F" width="28.1" height="30"/>
				<g clip-path="url(#SVGID_2_)">
					<rect x="37" y="61.3" fill="#FCBE1F" width="7.7" height="30.1"/>
					<rect x="44.7" y="61.3" fill="#DB3A49" width="7.7" height="30.1"/>
					<rect x="52.3" y="61.3" fill="#FCBE1F" width="7.7" height="30.1"/>
				</g>
				<g clip-path="url(#SVGID_2_)">
					<rect x="67" y="31.4" fill="#DB3A49" width="7.7" height="30.1"/>
					<rect x="74.7" y="31.4" fill="#FCBE1F" width="7.7" height="30.1"/>
					<rect x="82.3" y="31.4" fill="#DB3A49" width="7.7" height="30.1"/>
				</g>
				<rect x="33.5" y="31.4" clip-path="url(#SVGID_2_)" fill="#DB3A49" width="30" height="30"/>
				
					<line clip-path="url(#SVGID_2_)" fill="#FCBE1F" stroke="#A09682" stroke-width="7" stroke-miterlimit="10" x1="63.5" y1="31.4" x2="63.5" y2="91.4"/>
				
					<line clip-path="url(#SVGID_2_)" fill="#FCBE1F" stroke="#A09682" stroke-width="7" stroke-miterlimit="10" x1="33.5" y1="61.4" x2="93.5" y2="61.4"/>
				<use xlink:href="#SVGID_9_"  overflow="visible" fill="none" stroke="#A09682" stroke-width="7" stroke-miterlimit="10"/>
			</g>
		</g>
	</g>
</g>
</svg>
