<?xml version="1.0" encoding="utf-8"?>
<!-- Generator: Adobe Illustrator 18.1.1, SVG Export Plug-In . SVG Version: 6.00 Build 0)  -->
<!DOCTYPE svg PUBLIC "-//W3C//DTD SVG 1.1//EN" "http://www.w3.org/Graphics/SVG/1.1/DTD/svg11.dtd">
<svg version="1.1" xmlns="http://www.w3.org/2000/svg" xmlns:xlink="http://www.w3.org/1999/xlink" x="0px" y="0px"
	 viewBox="0 0 130 120" enable-background="new 0 0 130 120" xml:space="preserve">
<g id="Infos">
	<rect id="BG" x="-950" y="-1020" fill="#D8D8D8" width="2180" height="1700"/>
</g>
<g id="Others">
</g>
<g id="Europe">
	<g id="Row_5">
	</g>
	<g id="Row_4">
		<g>
			<rect y="0" fill="#FFFFFF" width="130" height="39"/>
			<rect y="39" fill="#2A66B7" width="130" height="42"/>
			<rect y="81" fill="#DC4437" width="130" height="39"/>
			<g>
				<defs>
					<path id="SVGID_3_" d="M41.2,32C23.6,33.1,22,40.9,22,40.9v6.5c0,0-0.1,30.3,0.6,33.3c0.7,3,14.3,16,22.9,16.2
						c8.6,0.2,22.2-13.2,22.9-16.2c0.7-3,0.6-33.3,0.6-33.3v-6.5c0,0-1.6-7.8-19.2-8.9H41.2z"/>
				</defs>
				<use xlink:href="#SVGID_3_"  overflow="visible" fill="#DC4437"/>
				<clipPath id="SVGID_2_">
					<use xlink:href="#SVGID_3_"  overflow="visible"/>
				</clipPath>
				
					<line clip-path="url(#SVGID_2_)" fill="none" stroke="#FFFFFF" stroke-width="6" stroke-miterlimit="10" x1="45.5" y1="74" x2="45.5" y2="39"/>
				
					<line clip-path="url(#SVGID_2_)" fill="none" stroke="#FFFFFF" stroke-width="6" stroke-miterlimit="10" x1="56.5" y1="54.4" x2="34.5" y2="54.4"/>
				
					<line clip-path="url(#SVGID_2_)" fill="none" stroke="#FFFFFF" stroke-width="6" stroke-miterlimit="10" x1="55.6" y1="45.6" x2="35.4" y2="45.6"/>
				<ellipse clip-path="url(#SVGID_2_)" fill="#2A66B7" cx="45.5" cy="83.8" rx="23.3" ry="21.7"/>
			</g>
		</g>
	</g>
	<g id="Row_3">
	</g>
	<g id="Row_2">
	</g>
	<g id="Row_1">
	</g>
</g>
</svg>
